# xmcd
#
# Track frame offsets: 
#        150
#        15628
#        28650
#        40396
#        53012
#        65546
#        81663
#        95987
#        109378
#        123287
#
# Disc length: 2030 seconds
#
# Revision: 0
# Processed by: cddbd v1.5.2PL0 Copyright (c) Steve Scherf et al.
# Submitted via: ExactAudioCopyFreeDBPlugin 1.0
#
DISCID=8c07ec0a
DTITLE=Faarao Pirttikangas and Kuhmalahden Nubialaiset - Papyloonin barb
DTITLE=ecue
DYEAR=2016
DGENRE=
TTITLE0=Silvo Sokka
TTITLE1=Muistin tyttäret
TTITLE2=Delirium Tango
TTITLE3=Nainen kuin nahkiainen
TTITLE4=Albin Pohjolaisen henki
TTITLE5=Lauttasaaren kaulankatkoja
TTITLE6=Merten kummajaisten sukua
TTITLE7=Käärmeöljyä
TTITLE8=Kiputyttö
TTITLE9=Papyloonin barbecue
EXTD=
EXTT0=
EXTT1=
EXTT2=
EXTT3=
EXTT4=
EXTT5=
EXTT6=
EXTT7=
EXTT8=
EXTT9=
PLAYORDER=
